# xmcd CD database file
#
# Track frame offsets:
#	150
#	10353
#	23375
#	36900
#	46598
#	51437
#	61583
#	74103
#	85388
#	91372
#	96438
#	110063
#	117718
#	121338
#	126687
#	136133
#	146790
#	151782
#	160765
#	165720
#	173643
#
# Disc length: 2504 seconds
#
# Revision: 11
# Processed by: cddbd v1.5.2PL0 Copyright (c) Steve Scherf et al.
# Submitted via: CDex 2.23
#
DISCID=2809c615
DTITLE=Joe Hisaishi - Kiki's Delivery Service
DYEAR=1989
DGENRE=Soundtrack
TTITLE0=On A Clear Day... (Hareta Hi Ni...)
TTITLE1=Departure (Tabidachi)
TTITLE2=A Town With An Ocean View (Umi No Mieru Machi)
TTITLE3=Flying Delivery Service (Sora Tobu Takkyubin)
TTITLE4=The Baker's Assistant (Pan-ya No Tetsudai)
TTITLE5=Starting The Job (Shigoto Hajime)
TTITLE6=Surrogate Jiji (Migawari Jiji)
TTITLE7=Jeff (Jeff)
TTITLE8=A Very Busy Kiki (Ooisogashi No Kiki)
TTITLE9=Late For The Party (Party Ni Maniawanai)
TTITLE10=Osono's Request... (Osono-san No Tanomigoto...)
TTITLE11=A Propeller Driven Bicycle (Propeller Jitensha)
TTITLE12=I Can't Fly! (Tobenai!)
TTITLE13=Heartbroken Kiki (Shoshin Kiki)
TTITLE14=To Ursula's Cabin (Ursula No Koya E)
TTITLE15=An Unusual Painting (Shinpi Naru E)
TTITLE16=The Adventure Of Freedom, Out Of Control (Bohiko No Jiyu No Boken-Go)
TTITLE17=The Old Man's Push Broom (Ojii-san No Deck Brush)
TTITLE18=	Rendezvous On The Push Broom (Deck Brush De Rendez-vous)
TTITLE19=A Message Left In Lipstick (Rouge No Dengon)
TTITLE20=Wrapped In Gentleness (Yasashisa Ni Tsutsumaretanara)
EXTD=YEAR: 1989
EXTT0=
EXTT1=
EXTT2=
EXTT3=
EXTT4=
EXTT5=
EXTT6=
EXTT7=
EXTT8=
EXTT9=
EXTT10=
EXTT11=
EXTT12=
EXTT13=
EXTT14=
EXTT15=
EXTT16=
EXTT17=
EXTT18=
EXTT19=
EXTT20=
PLAYORDER=
